# xmcd
#
# Track frame offsets:
#	150
#	11030
#	24205
#	37297
#	49480
#	65110
#	83540
#	96882
#	109577
#	121902
#	134470
#	144667
#	159540
#	174617
#	187575
#	200575
#	218460
#	231342
#
# Disc length: 3276 seconds
#
# Revision: 0
# Processed by: cddbd v1.5.1PL2 Copyright (c) Steve Scherf et al.
# Submitted via: dBpowerAMP V4.0
#
DISCID=fa0cca12
DTITLE=Various Artist - Whole Lotta...Soul
DYEAR=1900
DGENRE=
TTITLE0=Aretha Franklin - Since You've Been Gone
TTITLE1=The Sweet Inspirations - Sweet Inspiration
TTITLE2=Sam and Dave - I Thank You
TTITLE3=Eddie Floyd - I've Never Found A Girl
TTITLE4=The Checkmates, Ltd. - Black Pearl
TTITLE5=Dells - Oh, What A Night
TTITLE6=Barbara Acklin - Love Makes A Woman
TTITLE7=Tyrone Davis - Can I Change My Mind
TTITLE8=Jerry Butler - Hey, Western Union Man
TTITLE9=Peggy Scott and Jo Jo Benson - Lover's Hoiday
TTITLE10=Marvin Gaye and Tammi Terrell - Ain't Nothing Like The Real Thing Baby
TTITLE11=Delfonics - LA-LA Means I Love You
TTITLE12=Originals - Baby I'm For Real
TTITLE13=Unifics - Court of Love
TTITLE14=Dells - Stay In My Corner
TTITLE15=Johnny Adams - Reconsider Me
TTITLE16=Emotions - So I Can Love You
TTITLE17=Fifth Dimension - Workin' On A Groovy Thing
EXTD=
EXTT0=
EXTT1=
EXTT2=
EXTT3=
EXTT4=
EXTT5=
EXTT6=
EXTT7=
EXTT8=
EXTT9=
EXTT10=
EXTT11=
EXTT12=
EXTT13=
EXTT14=
EXTT15=
EXTT16=
EXTT17=
PLAYORDER=
